<?xml version="1.0" encoding="utf-8"?>
<!-- Generator: Adobe Illustrator 19.2.1, SVG Export Plug-In . SVG Version: 6.00 Build 0)  -->
<svg version="1.1" id="Слой_1" xmlns="http://www.w3.org/2000/svg" xmlns:xlink="http://www.w3.org/1999/xlink" x="0px" y="0px"
	 viewBox="0 0 100 100" style="enable-background:new 0 0 100 100;" xml:space="preserve">
<g>
	<g>
		<path d="M40,19.7v59.1h-9.9v-2.4c-4.5,2.3-8.6,3.4-12.3,3.4c-6,0-10.4-1.8-13.1-5.4c-2.8-3.6-4.2-9.7-4.2-18.1S2,41.6,5.1,37.8
			C8.2,34,13,32,19.6,32c2.2,0,5.7,0.4,10.4,1.2V19.7H40z M28.4,69.3l1.6-0.6V41.6c-3.7-0.6-7.1-0.9-10.2-0.9
			c-6.2,0-9.3,5.1-9.3,15.4c0,5.6,0.7,9.5,2.2,11.7c1.4,2.2,3.7,3.3,6.8,3.3S25.6,70.4,28.4,69.3z"/>
		<path d="M73.6,41.6H61v20.2c0,3.7,0.3,6.2,0.8,7.4c0.5,1.2,2,1.8,4.2,1.8l7.5-0.3l0.5,8c-4.1,0.8-7.2,1.2-9.3,1.2
			c-5.2,0-8.8-1.2-10.7-3.6c-1.9-2.4-2.9-6.9-2.9-13.5V41.6h-5.9V33h5.9V19.7H61V33h12.6V41.6z"/>
		<circle cx="90.2" cy="71" r="9.3"/>
	</g>
</g>
</svg>
